PathFileType	4	(X/Y/Z)	/Users/itak/Documents/Research/Walk-IL/dataset/trc/00150_00007.trc
DataRate	CameraRate	NumFrames	NumMarkers	Units	OrigDataRate	OrigDataStartFrame	OrigNumFrames
100.000000	100.000000	4	53	mm	100.000000	139	557
Frame#	Time	RPSI			LPSI			L3			STRN			T10			C7			CLAV			RBAK			LBAK			LSHO			LUPA			LAEL			LAOL			LWTS			LWPS			LFRA			LIFD			LHPS			LHTS			RSHO			RUPA			RAEL			RAOL			RWTS			RWPS			RFRA			RIFD			RHTS			RHPS			RBHD			LFHD			RFHD			LBHD			LHIP			RHIP			RASI			LASI			LKNE			LTHI			LANK			LTIP			LTOE			LMT1			LMT5			LHEE			RKNE			RTHI			RANK			RTIP			RTOE			RMT1			RMT5			RHEE			
		X1	Y1	Z1	X2	Y2	Z2	X3	Y3	Z3	X4	Y4	Z4	X5	Y5	Z5	X6	Y6	Z6	X7	Y7	Z7	X8	Y8	Z8	X9	Y9	Z9	X10	Y10	Z10	X11	Y11	Z11	X12	Y12	Z12	X13	Y13	Z13	X14	Y14	Z14	X15	Y15	Z15	X16	Y16	Z16	X17	Y17	Z17	X18	Y18	Z18	X19	Y19	Z19	X20	Y20	Z20	X21	Y21	Z21	X22	Y22	Z22	X23	Y23	Z23	X24	Y24	Z24	X25	Y25	Z25	X26	Y26	Z26	X27	Y27	Z27	X28	Y28	Z28	X29	Y29	Z29	X30	Y30	Z30	X31	Y31	Z31	X32	Y32	Z32	X33	Y33	Z33	X34	Y34	Z34	X35	Y35	Z35	X36	Y36	Z36	X37	Y37	Z37	X38	Y38	Z38	X39	Y39	Z39	X40	Y40	Z40	X41	Y41	Z41	X42	Y42	Z42	X43	Y43	Z43	X44	Y44	Z44	X45	Y45	Z45	X46	Y46	Z46	X47	Y47	Z47	X48	Y48	Z48	X49	Y49	Z49	X50	Y50	Z50	X51	Y51	Z51	X52	Y52	Z52	X53	Y53	Z53	

140	1.39	-1310.975341796875	1115.284790039062	-539.9833984375	-1310.417724609375	1122.42333984375	-675.64404296875	-1315.396850585938	1157.3515625	-612.48095703125	-1084.469848632812	1341.363159179688	-616.7770385742188	-1340.563842773438	1311.710205078125	-617.2493896484375	-1279.699462890625	1600.104125976562	-634.3132934570312	-1108.598510742188	1478.83154296875	-621.7197875976562	-1351.546752929688	1421.7646484375	-546.3646240234375	-1285.890991210938	1580.061889648438	-737.0322875976562	-1199.506591796875	1557.520263671875	-803.4251708984375	-1226.517456054688	1427.223754882812	-873.1881713867188	-1222.844970703125	1205.428955078125	-893.3406372070312	-1291.342163085938	1197.698486328125	-839.3049926757812	-1139.143310546875	943.6361083984375	-843.840087890625	-1220.966064453125	921.7941284179688	-872.7321166992188	-1212.805419921875	1088.433227539062	-895.4697265625	-1135.869873046875	749.998046875	-819.9075927734375	-1195.693481445312	845.4681396484375	-871.0316772460938	-1128.995361328125	854.3196411132812	-852.2767333984375	-1230.170166015625	1576.949951171875	-451.3087158203125	-1255.3671875	1506.257690429688	-387.7685241699219	-1292.546752929688	1213.051025390625	-365.1513366699219	-1290.72412109375	1210.76123046875	-462.1582336425781	-1152.8681640625	967.5018920898438	-363.9201354980469	-1230.108276367188	951.7684326171875	-337.140380859375	-1273.055786132812	1138.970703125	-346.4502563476562	-1132.34619140625	770.6077270507812	-376.3098754882812	-1126.060791015625	859.049072265625	-354.6219787597656	-1194.738403320312	851.6471557617188	-328.9519958496094	-1240.726318359375	1758.667236328125	-555.1830444335938	-1069.841430664062	1831.086791992188	-673.4711303710938	-1080.083862304688	1832.184692382812	-544.1614990234375	-1238.47802734375	1760.97412109375	-690.7955322265625	-1227.184814453125	1029.697021484375	-786.5227661132812	-1180.69677734375	1017.01904296875	-425.2745971679688	-1102.134033203125	1088.216918945312	-483.2011413574219	-1113.532470703125	1086.20703125	-750.836669921875	-1225.822631835938	525.177001953125	-737.6213989257812	-1239.727661132812	671.82080078125	-772.986572265625	-1365.428466796875	33.20734024047852	-702.5134887695312	-1337.968627929688	283.6558837890625	-749.40576171875	-1136.33740234375	37.16176986694336	-643.0095825195312	-1217.543823242188	39.77563858032227	-611.6033325195312	-1240.769287109375	33.39858245849609	-726.8904418945312	-1434.4013671875	33.49996185302734	-640.9212646484375	-1017.579284667969	552.837646484375	-480.8265380859375	-1098.637817382812	820.3994140625	-448.1341857910156	-1301.454956054688	102.9281616210938	-445.1401977539062	-1082.9306640625	428.4832763671875	-458.0038757324219	-1083.587036132812	50.57817840576172	-494.8326416015625	-1143.150512695312	49.6168098449707	-539.1714477539062	-1177.87353515625	59.39426803588867	-425.4817199707031	-1354.654663085938	126.0660552978516	-494.3242797851562	
141	1.4	-1308.9091796875	1115.192138671875	-540.07275390625	-1308.44970703125	1122.2490234375	-675.7412719726562	-1313.37158203125	1157.362060546875	-612.678955078125	-1082.0087890625	1340.993530273438	-617.1215209960938	-1338.134155273438	1311.824951171875	-617.6461791992188	-1276.5263671875	1600.07568359375	-634.8182373046875	-1105.68505859375	1478.536743164062	-622.0341186523438	-1348.93359375	1421.932739257812	-546.8822021484375	-1282.658447265625	1580.041137695312	-737.5330810546875	-1196.255737304688	1557.308837890625	-803.8435668945312	-1223.486694335938	1427.0693359375	-873.6421508789062	-1220.382080078125	1205.266723632812	-893.7764892578125	-1288.885864257812	1197.701538085938	-839.7332763671875	-1137.206909179688	943.3134765625	-844.3207397460938	-1219.134643554688	921.6246337890625	-873.1197509765625	-1210.60791015625	1088.245727539062	-895.901611328125	-1134.312622070312	749.6621704101562	-820.3612670898438	-1194.00634765625	845.255615234375	-871.4306640625	-1127.21728515625	853.9883422851562	-852.7904663085938	-1227.226318359375	1576.83203125	-451.7459716796875	-1252.670654296875	1506.226806640625	-388.2252197265625	-1290.7880859375	1213.15771484375	-365.6085205078125	-1288.916625976562	1210.879760742188	-462.6160888671875	-1152.459106445312	966.83447265625	-364.3613586425781	-1229.754760742188	951.5684814453125	-337.5502319335938	-1271.681030273438	1139.0029296875	-346.899658203125	-1133.0556640625	769.8270263671875	-376.7630004882812	-1126.253662109375	858.2378540039062	-355.1031799316406	-1194.949462890625	851.2488403320312	-329.3459777832031	-1237.486694335938	1758.492553710938	-555.6901245117188	-1066.2744140625	1830.602905273438	-673.6890869140625	-1076.728271484375	1831.697143554688	-544.3905639648438	-1235.017578125	1760.794311523438	-691.2994995117188	-1225.4853515625	1029.414306640625	-786.7117919921875	-1178.2900390625	1017.164306640625	-425.4405822753906	-1099.913208007812	1088.125854492188	-483.6329956054688	-1111.584716796875	1085.866943359375	-751.2564086914062	-1224.787231445312	524.9178466796875	-737.7049560546875	-1238.498168945312	671.549072265625	-773.0426635742188	-1365.467529296875	33.24943542480469	-702.433837890625	-1337.563598632812	283.7061767578125	-749.181884765625	-1136.370483398438	37.17065811157227	-643.0679321289062	-1217.631591796875	39.69219589233398	-611.6766357421875	-1240.778076171875	33.41124725341797	-726.9227294921875	-1434.427978515625	33.58331680297852	-640.8015747070312	-1009.651428222656	555.2279663085938	-482.3903503417969	-1094.175659179688	821.7239379882812	-448.9037475585938	-1291.838012695312	104.1340942382812	-446.9835815429688	-1074.229125976562	430.3494567871094	-459.833740234375	-1073.837280273438	52.83827209472656	-497.5113220214844	-1133.749389648438	51.55912017822266	-541.677734375	-1167.923217773438	61.34439086914062	-427.7051086425781	-1345.351196289062	127.0774383544922	-495.9610290527344	
142	1.41	-1306.69287109375	1115.0986328125	-540.1527709960938	-1306.33251953125	1122.054809570312	-675.830810546875	-1311.202392578125	1157.351440429688	-612.865966796875	-1079.384887695312	1340.6279296875	-617.4484252929688	-1335.576416015625	1311.908935546875	-618.0281372070312	-1273.251831054688	1600.018920898438	-635.287109375	-1102.657958984375	1478.226684570312	-622.3355712890625	-1346.188720703125	1422.062377929688	-547.3712158203125	-1279.330078125	1579.997314453125	-737.9970092773438	-1192.908203125	1557.093505859375	-804.2371215820312	-1220.36279296875	1426.906372070312	-874.0682983398438	-1217.805541992188	1205.0908203125	-894.1605224609375	-1286.326049804688	1197.694213867188	-840.126953125	-1135.161010742188	942.986083984375	-844.670166015625	-1217.175903320312	921.4407958984375	-873.4227294921875	-1208.2783203125	1088.044189453125	-896.2578125	-1132.680053710938	749.3348999023438	-820.6575927734375	-1192.179321289062	845.0333862304688	-871.7205810546875	-1125.304443359375	853.6596069335938	-853.1327514648438	-1224.168334960938	1576.677001953125	-452.1529235839844	-1249.844604492188	1506.157470703125	-388.6512145996094	-1288.908447265625	1213.235473632812	-366.0583801269531	-1286.956665039062	1210.963134765625	-463.0666809082031	-1152.011962890625	966.0997924804688	-364.7022705078125	-1229.35595703125	951.338134765625	-337.9141235351562	-1270.202758789062	1139.009887695312	-347.3282775878906	-1133.773803710938	768.9968872070312	-377.089111328125	-1126.432006835938	857.3515625	-355.4688110351562	-1195.163940429688	850.8128051757812	-329.6702575683594	-1234.140625	1758.288330078125	-556.1373901367188	-1062.6171875	1830.112915039062	-673.8536376953125	-1073.264404296875	1831.181640625	-544.5641479492188	-1231.457275390625	1760.606811523438	-691.736328125	-1223.60302734375	1029.098510742188	-786.8637084960938	-1175.742309570312	1017.319030761719	-425.5794982910156	-1097.545288085938	1088.028198242188	-484.0193481445312	-1109.492919921875	1085.503662109375	-751.63037109375	-1223.705078125	524.63232421875	-737.75146484375	-1237.154418945312	671.2589721679688	-773.049560546875	-1365.509399414062	33.29345321655273	-702.3411254882812	-1337.147216796875	283.7495422363281	-748.9349975585938	-1136.379150390625	37.16984558105469	-643.1318969726562	-1217.719360351562	39.59731292724609	-611.73193359375	-1240.785034179688	33.42414474487305	-726.9529418945312	-1434.457763671875	33.69286727905273	-640.6641235351562	-1002.051696777344	557.5413818359375	-483.8442993164062	-1089.782958984375	823.013916015625	-449.5904235839844	-1281.280029296875	104.4842300415039	-448.9513549804688	-1065.656005859375	432.0240173339844	-461.5435791015625	-1062.901000976562	55.02427673339844	-500.0523681640625	-1123.05810546875	53.26072692871094	-544.090576171875	-1156.882690429688	62.94929122924805	-429.9006652832031	-1335.155029296875	127.010139465332	-497.8021240234375	
143	1.42	-1304.333129882812	1114.995239257812	-540.2332763671875	-1304.063720703125	1121.837280273438	-675.9214477539062	-1308.8974609375	1157.315673828125	-613.0509033203125	-1076.599731445312	1340.259521484375	-617.7545166015625	-1332.885131835938	1311.956298828125	-618.3969116210938	-1269.873168945312	1599.925903320312	-635.7197875976562	-1099.515747070312	1477.900146484375	-622.6259155273438	-1343.308227539062	1422.1484375	-547.8306274414062	-1275.905029296875	1579.922729492188	-738.424560546875	-1189.462280273438	1556.866088867188	-804.6080322265625	-1217.142211914062	1426.729248046875	-874.4679565429688	-1215.111694335938	1204.894165039062	-894.4932861328125	-1283.6572265625	1197.669189453125	-840.484130859375	-1133.005126953125	942.6427001953125	-844.8961791992188	-1215.085571289062	921.2366333007812	-873.6417846679688	-1205.818481445312	1087.821655273438	-896.5422973632812	-1130.968139648438	749.005615234375	-820.8011474609375	-1190.215942382812	844.7927856445312	-871.9037475585938	-1123.259155273438	853.3233032226562	-853.313720703125	-1220.99365234375	1576.483520507812	-452.5303344726562	-1246.88671875	1506.047241210938	-389.0475158691406	-1286.900024414062	1213.285278320312	-366.4981079101562	-1284.834838867188	1211.01123046875	-463.5067749023438	-1151.515869140625	965.303466796875	-364.9529418945312	-1228.89404296875	951.0787353515625	-338.23291015625	-1268.611328125	1138.991088867188	-347.7352294921875	-1134.483764648438	768.1231079101562	-377.302001953125	-1126.584594726562	856.3956298828125	-355.7290649414062	-1195.368774414062	850.3411254882812	-329.9359130859375	-1230.684448242188	1758.045654296875	-556.5260009765625	-1058.867797851562	1829.612670898438	-673.9613647460938	-1069.694091796875	1830.630981445312	-544.6807861328125	-1227.795043945312	1760.411376953125	-692.1083984375	-1221.530395507812	1028.747436523438	-786.9830322265625	-1173.065551757812	1017.466003417969	-425.6973571777344	-1095.0419921875	1087.912353515625	-484.3501892089844	-1107.248413085938	1085.108154296875	-751.9580688476562	-1222.571533203125	524.316162109375	-737.763427734375	-1235.687744140625	670.9503173828125	-773.0112915039062	-1365.55224609375	33.33913421630859	-702.2385864257812	-1336.70849609375	283.7759399414062	-748.6788330078125	-1136.362182617188	37.15854263305664	-643.1973266601562	-1217.778686523438	39.50402450561523	-611.7646484375	-1240.790283203125	33.43546295166016	-726.979736328125	-1434.492553710938	33.82980728149414	-640.513916015625	-994.7883911132812	559.751953125	-485.1668395996094	-1085.470581054688	824.2501220703125	-450.1950073242188	-1269.816284179688	104.0025329589844	-451.0242919921875	-1057.209716796875	433.4736022949219	-463.115478515625	-1050.850952148438	57.07593536376953	-502.3353576660156	-1111.098266601562	54.67095184326172	-546.3023071289062	-1144.83740234375	64.1859130859375	-431.9867858886719	-1324.071166992188	125.89404296875	-499.8518371582031	
